<?xml version="1.0"?>
<svg xmlns="http://www.w3.org/2000/svg"  id="Layer_1" data-name="Layer 1" viewBox="0 0 512 512" style="fill:white;" width="512" height="512"><title>Refresh</title><path d="M143,429.172A33.909,33.909,0,0,0,177.021,463H334.979A33.909,33.909,0,0,0,369,429.172V404H143Zm113-16.567a20.873,20.873,0,1,1-20.872,20.874A20.9,20.9,0,0,1,256,412.605Z"/><path d="M256,442.351a8.873,8.873,0,1,0-8.872-8.872A8.883,8.883,0,0,0,256,442.351Z"/><path d="M334.979,49H177.021A33.909,33.909,0,0,0,143,82.828V96H282.109a6,6,0,0,1,0,12H143V392H369V108H341.93a6,6,0,0,1,0-12H369V82.828A33.909,33.909,0,0,0,334.979,49ZM256,325.932c-36.645,0-61.26-31.676-61.26-61.26a6,6,0,0,1,12-.007c0,20.652,17.118,49.251,49.26,49.251,29.466,0,49.26-25.487,49.26-49.276S285.466,215.346,256,215.346c-13.549,0-25.073,6-33.219,13.265L250.532,228h.1a6.141,6.141,0,0,1,.1,12.275l-40.974.7c-.226.017-.451.02-.683.02h-.189a6.117,6.117,0,0,1-4.344-1.769,6.035,6.035,0,0,1-1.758-4.36l.715-42.937a6.03,6.03,0,0,1,6-5.934h.1a5.994,5.994,0,0,1,5.9,6.133l-.455,27.376c10.087-8.959,24.147-16.095,40.953-16.095,36.645,0,61.26,31.675,61.26,61.259S292.645,325.932,256,325.932ZM317.945,108h-11.02a6,6,0,0,1,0-12h11.02a6,6,0,0,1,0,12Z"/></svg>
